<svg width="600" height="100" viewBox="0 0 600 100" fill="none" xmlns="http://www.w3.org/2000/svg">
<g clip-path="url(#clip0_138_38)">
<path d="M70.8955 48.8638C75.9408 50.4556 82.6163 52.3393 93.4064 51.8436C98.6884 51.6013 102.99 50.8357 106.295 48.8143C109.6 46.7929 112.062 44.0224 113.675 40.4973L113.565 80.9309C112.243 83.6463 109.908 85.9431 106.57 87.8158C103.227 89.6885 99.6083 90.6965 95.7197 90.6249C85.0068 90.4266 74.8777 84.7369 69.6011 78.6341C63.2946 71.3361 58.0345 62.3307 58.8938 52.9838C59.5327 46.0218 62.6777 40.7727 69.3643 37.0824C74.371 34.3174 79.3832 32.2024 84.3513 30.0323C90.2118 27.4656 88.1353 22.7673 81.6359 24.293C76.3263 25.5378 71.0993 28.6498 66.715 32.935C55.22 44.1601 48.1919 63.6967 52.8571 88.8678H10C11.2503 84.9737 12.2417 80.0001 12.9743 73.9359C13.7068 67.8772 14.0759 62.0167 14.0759 56.3601V44.2427C14.0759 38.7348 13.7068 32.9129 12.9743 26.7771C12.2417 20.6523 11.2503 15.6346 10 11.746H52.8626C51.6123 15.7117 50.5768 20.3549 49.8883 25.681C49.0346 32.2905 47.8779 43.3064 47.7402 52.0144H49.1778C53.5401 40.0347 61.5541 27.9007 69.5406 20.7955C77.3067 13.8831 84.9076 10 93.5165 10C101.299 10 107.071 11.7625 109.671 17.5789C111.786 22.3047 108.168 29.9111 100.842 33.3315C89.3966 38.6742 82.6164 37.2366 70.3447 41.5438C65.8062 43.1356 65.674 47.2225 70.8955 48.8694V48.8638ZM558.307 60.4525C552.579 60.4525 547.528 60.1386 543.161 59.5162C538.787 58.8938 535.378 57.8087 532.916 56.2665C530.454 54.7243 529.226 52.7029 529.226 50.2078C529.226 48.0046 530.382 46.1484 532.696 44.6448C535.009 43.1411 538.11 42.001 542.004 41.2299C545.898 40.4588 550.337 40.0732 555.333 40.0732C561.722 40.0732 567.726 40.971 573.344 42.7721C577.899 44.2317 581.606 45.9006 584.498 47.7678L588.821 16.94C583.974 14.9571 578.191 13.3047 571.471 11.9828C564.752 10.6609 557.498 10 549.715 10C539.509 10 530.179 11.4321 521.735 14.2962C513.291 17.1603 506.55 21.5666 501.521 27.5152C496.492 33.4637 493.975 41.0646 493.975 50.3179C493.975 59.5712 496.602 66.9904 501.851 73.0105C507.1 79.0307 514.002 83.4756 522.561 86.3397C531.115 89.2038 540.533 90.6359 550.817 90.6359C559.26 90.6359 566.679 90.2503 573.069 89.4792C578.742 88.7962 584.387 87.8489 590.006 86.6702V52.2622C586.233 54.6086 581.953 56.4978 577.144 57.9134C571.416 59.6043 565.137 60.447 558.307 60.447V60.4525ZM232.613 60.4525C226.885 60.4525 221.834 60.1386 217.467 59.5162C213.093 58.8938 209.684 57.8087 207.222 56.2665C204.76 54.7243 203.532 52.7029 203.532 50.2078C203.532 48.0046 204.688 46.1484 207.002 44.6448C209.315 43.1411 212.416 42.001 216.31 41.2299C220.204 40.4588 224.643 40.0732 229.639 40.0732C236.028 40.0732 242.032 40.971 247.65 42.7721C252.205 44.2317 255.912 45.9006 258.804 47.7678L263.127 16.94C258.28 14.9571 252.497 13.3047 245.777 11.9828C239.058 10.6609 231.804 10 224.021 10C213.815 10 204.484 11.4321 196.041 14.2962C187.597 17.1603 180.856 21.5666 175.827 27.5152C170.798 33.4637 168.281 41.0646 168.281 50.3179C168.281 59.5712 170.908 66.9904 176.157 73.0105C181.406 79.0307 188.308 83.4756 196.867 86.3397C205.421 89.2038 214.839 90.6359 225.123 90.6359C233.566 90.6359 240.985 90.2503 247.375 89.4792C253.048 88.7962 258.693 87.8489 264.311 86.6702V52.2622C260.539 54.6086 256.259 56.4978 251.45 57.9134C245.722 59.6043 239.443 60.447 232.613 60.447V60.4525ZM163.473 88.8733C162.222 85.0564 161.214 80.1158 160.443 74.0571C159.672 67.9983 159.287 62.1049 159.287 56.3766V44.2592C159.287 38.6797 159.672 32.8413 160.443 26.7441C161.214 20.6468 162.222 15.6566 163.473 11.7625H120.511C121.684 15.6566 122.642 20.6688 123.375 26.7991C124.107 32.9295 124.477 38.7513 124.477 44.2592V56.3766C124.477 62.0333 124.13 67.8882 123.43 73.9469C122.73 80.0056 121.761 84.9792 120.511 88.8733H163.473ZM369.705 87.8268C373.049 85.9541 375.379 83.6573 376.7 80.9419L376.811 40.5139C375.197 44.0389 372.735 46.8094 369.43 48.8308C366.125 50.8522 361.829 51.8602 356.541 51.8602C354.487 51.8602 352.521 51.7114 350.648 51.4195C348.775 51.1276 347.106 50.7971 345.636 50.4281C344.165 50.0591 342.623 49.6184 341.009 49.1062C339.687 48.594 338.349 48.1533 336.988 47.7843C335.628 47.4153 334.212 47.1399 332.747 46.9581C331.277 46.7763 329.734 46.6827 328.121 46.6827H327.68V45.2507H336.823C346.005 45.2507 353 44.7715 357.808 43.8186C362.617 42.8657 366.142 41.0812 368.383 38.4759C370.62 35.8707 371.743 31.9215 371.743 26.6339C371.743 23.5495 371.468 20.8891 370.917 18.6474C370.366 16.4057 369.469 14.1144 368.218 11.7625H329.773L329.993 11.9828C331.095 14.0373 331.96 16.2405 332.582 18.5923C333.204 20.9442 333.518 23.3292 333.518 25.7526C333.518 31.1118 332.103 35.2263 329.277 38.0904C326.452 40.9545 322.464 42.3865 317.325 42.3865H311.927V41.5053C311.927 36.2893 312.296 31.0237 313.029 25.6976C313.762 20.3714 314.753 15.7282 316.003 11.7625H273.152C274.402 15.6566 275.393 20.6688 276.126 26.7991C276.858 32.9295 277.228 38.7513 277.228 44.2592V56.3766C277.228 62.0333 276.858 67.8882 276.126 73.9469C275.393 80.0056 274.402 84.9792 273.152 88.8733H316.003C314.753 85.0564 313.762 79.934 313.029 73.5063C312.296 67.0785 311.927 61.0033 311.927 55.2751V49.657C312.44 49.5083 313.007 49.3265 313.635 49.1062C314.257 48.8859 314.902 48.7757 315.563 48.7757C318.278 48.7757 320.52 49.5083 322.282 50.9789C324.045 52.4495 325.477 54.2671 326.578 56.4317C327.68 58.5963 328.963 61.6257 330.434 65.5198C332.34 70.8074 334.218 75.1201 336.052 78.4634C337.886 81.8067 340.64 84.6708 344.314 87.0557C347.988 89.4407 352.835 90.6359 358.855 90.6359C362.749 90.6359 366.362 89.6995 369.705 87.8268ZM447.94 48.2249V41.6154H476.911C480.381 41.6154 483.653 41.7586 486.727 42.034C488.043 29.9992 491.518 20.0189 496.696 11.7625H409.159C410.409 15.7282 411.378 20.779 412.078 26.9093C412.777 33.0396 413.124 38.8229 413.124 44.2592V56.3766C413.124 61.9562 412.777 67.7946 412.078 73.8918C411.378 79.9891 410.409 84.9792 409.159 88.8733H452.01C450.688 84.836 449.68 80.3196 448.981 75.3239C448.281 70.3282 447.934 65.1177 447.934 59.6814V58.69H470.847C477.749 58.69 482.926 58.8717 486.38 59.2408V47.7843C482.783 48.0762 477.605 48.2249 470.847 48.2249H447.934H447.94Z" fill="#F4A7BA"/>
</g>
<defs>
<clipPath id="clip0_138_38">
<rect width="580" height="80.6359" fill="white" transform="translate(10 10)"/>
</clipPath>
</defs>
</svg>
